# xmcd
#
# Track frame offsets:
#	150
#	16807
#	32102
#	46220
#
# Disc length: 749 seconds
#
# Revision: 1
# Processed by: cddbd v1.5.2PL0 Copyright (c) Steve Scherf et al.
# Submitted via: audiograbber 1.83.01
#
DISCID=2502eb04
DTITLE=Rudi Rafael - Stenka Rasin [CDS)
DYEAR=1995
DGENRE=Pop
TTITLE0=Maailma On Edessäin
TTITLE1=Stenka Rasin
TTITLE2=Miksi Et Muistanut
TTITLE3=Raikulipoika
EXTD=TR.
EXTT0=
EXTT1=
EXTT2=
EXTT3=
PLAYORDER=
